# xmcd
#
# Track frame offsets: 
#        150
#        26220
#        50112
#        71860
#        91963
#        111901
#        147200
#        169534
#        196870
#        221227
#        244775
#        269161
#        289034
#        318880
#        340120
#
# Disc length: 4796 seconds
#
# Revision: 0
# Processed by: cddbd v1.5.1PL2 Copyright (c) Steve Scherf et al.
# Submitted via: ExactAudioCopy v0.95b2
#
DISCID=ee12ba0f
DTITLE=Various Artist - Romantic Collection BLUES FOREVER
DYEAR=1900
DGENRE=Blues
TTITLE0=1.SAFFIRE-The Middle Aged Blues Boodgie
TTITLE1=2.ERIC CLAPTON-Going Down Slow
TTITLE2=3.JOHN LEE HOOKER-Chil Out
TTITLE3=4.OMAR and the HOWLERS-Black Bottom
TTITLE4=5.TINSLEY ELLIS-To the Devil For a Dime
TTITLE5=6.PETER GREEN-Fool no More
TTITLE6=7.LUCKY PETERSON-Whou's Been Talking
TTITLE7=8.THE ROBERT CRAY BAND-Back Home
TTITLE8=9.B.B. KING-Standing on The Edge
TTITLE9=10.JOHN MAYAL and BUDDY GUY-I Could Cry
TTITLE10=11.STAN WEBBS CHIKEN SHACK-Dont You Worry About A Thinc
TTITLE11=12.KENNY NEAL-Blues Falling Down Like Rain
TTITLE12=13.LARRY MCCREY-Gone For Good
TTITLE13=14.DANA GILESPIE-Were Blue Begins
TTITLE14=15.JIMMY ROGERS,MICK JAGGER and KIETH RICHARDS-Goin' Away Bab
TTITLE14=y
EXTD=
EXTT0=
EXTT1=
EXTT2=
EXTT3=
EXTT4=
EXTT5=
EXTT6=
EXTT7=
EXTT8=
EXTT9=
EXTT10=
EXTT11=
EXTT12=
EXTT13=
EXTT14=
PLAYORDER=
